# xmcd CD database file
#
# Track frame offsets:
#	150
#	26021
#	41808
#	56821
#	94225
#	125993
#	147739
#
# Disc length: 2452 seconds
#
# Revision: 0
# Processed by: cddbd v1.5.2PL0 Copyright (c) Steve Scherf et al.
# Submitted via: CDex 1.51
#
DISCID=71099207
DTITLE=B.B. KING - L.A. Midnight
DYEAR=1972
DGENRE=Blues
TTITLE0=I Got Some Help I Don't Need
TTITLE1=Help The Poor
TTITLE2=Can't You Hear Me Talking
TTITLE3=Midnight
TTITLE4=Sweet Sixteen
TTITLE5=I've Been Blue Too Long
TTITLE6=Lucille's Granny
EXTD=YEAR: 1972
EXTT0=
EXTT1=
EXTT2=
EXTT3=
EXTT4=
EXTT5=
EXTT6=
PLAYORDER=
